<svg width="121" height="36" viewBox="0 0 121 36" fill="none" xmlns="http://www.w3.org/2000/svg">
<path d="M12.6951 29.7802C12.6752 29.8573 12.6526 29.9315 12.6271 30.0058C12.528 30.2885 12.3949 30.554 12.2335 30.7939C11.6021 31.7362 10.5347 32.3273 9.36818 32.3273C7.46266 32.3273 5.91389 30.7653 5.91389 28.8436V27.2617H3.01172V28.8436C3.01172 32.3787 5.86292 35.2541 9.36818 35.2541C12.058 35.2541 14.4675 33.538 15.3622 30.9795C15.4981 30.5883 15.5916 30.1885 15.651 29.7802H12.6951Z" fill="#192B47"></path>
<path d="M9.70045 9.90918H9.03508C4.5898 9.90918 0.988281 13.5413 0.988281 18.0243V25.6255H17.7472V18.0243C17.7472 13.5441 14.1457 9.90918 9.70045 9.90918Z" fill="#192B47"></path>
<path d="M23.4648 10.9824H28.2584C32.8481 10.9824 35.787 13.9863 35.787 18.3066C35.787 22.6269 32.9726 25.5908 28.3207 25.5908H26.1348C24.6597 25.5908 23.4648 24.3858 23.4648 22.8981V10.9824ZM28.1366 23.0181C30.951 23.0181 32.7886 20.9821 32.7886 18.3066C32.7886 15.6311 30.9312 13.5552 28.3008 13.5552H26.3019V22.4955C26.3019 22.7839 26.5341 23.0181 26.82 23.0181H28.1366Z" fill="#192B47"></path>
<path d="M36.5547 20.5883C36.5547 17.5444 38.5735 15.3828 41.2463 15.3828C42.41 15.3828 43.4689 15.834 44.1853 16.6992L44.2249 16.6792V15.5284H46.8977V25.5881H44.3467V24.3946L44.307 24.3746C43.6133 25.2797 42.6139 25.7737 41.3086 25.7737C38.5763 25.7737 36.5547 23.695 36.5547 20.5883ZM44.3467 20.6083C44.3467 18.9835 43.2453 17.7899 41.8182 17.7899C40.3912 17.7899 39.2672 18.8807 39.2672 20.6083C39.2672 22.213 40.3063 23.3438 41.8182 23.3438C43.1858 23.3438 44.3467 22.253 44.3467 20.6083Z" fill="#192B47"></path>
<path d="M49.3163 22.4215V17.77H48.1328V15.5285H49.3163V12.2562L51.9892 11.9678V15.5256H54.6818V17.7672H51.9892V22.0246C51.9892 22.9098 52.2128 23.321 52.8471 23.321C53.1727 23.321 53.6625 23.1982 54.1127 22.9698L54.7866 25.1313C54.1552 25.4797 53.5011 25.7681 52.1562 25.7681C50.4432 25.7681 49.322 24.6773 49.322 22.4158L49.3163 22.4215Z" fill="#192B47"></path>
<path d="M55.0117 20.5883C55.0117 17.5444 57.0305 15.3828 59.7033 15.3828C60.867 15.3828 61.926 15.834 62.6423 16.6992L62.6819 16.6792V15.5284H65.3548V25.5881H62.8037V24.3946L62.7641 24.3746C62.0704 25.2797 61.0709 25.7737 59.7656 25.7737C57.0333 25.7737 55.0117 23.695 55.0117 20.5883ZM62.8037 20.6083C62.8037 18.9835 61.7023 17.7899 60.2753 17.7899C58.8482 17.7899 57.7242 18.8807 57.7242 20.6083C57.7242 22.213 58.7633 23.3438 60.2753 23.3438C61.6428 23.3438 62.8037 22.253 62.8037 20.6083Z" fill="#192B47"></path>
<path d="M66.6094 18.3067C66.6094 14.0264 69.3417 10.7969 73.8719 10.7969C75.9331 10.7969 78.1359 11.6192 79.6253 13.2868L77.6065 15.0572C76.7089 14.152 75.4631 13.5352 73.8719 13.5352C71.485 13.5352 69.6078 15.3256 69.6078 18.3095C69.6078 21.0051 71.2812 23.1038 73.9936 23.1038C75.0327 23.1038 75.9926 22.8354 76.91 22.2614V20.1227H73.6652V17.6328H79.7045V23.929C78.3794 24.9998 76.2163 25.7394 73.9936 25.7394C69.8117 25.7394 66.6094 23.0039 66.6094 18.3124V18.3067Z" fill="#192B47"></path>
<path d="M81.3203 21.5961V15.5283H83.9733V20.8965C83.9733 22.7269 84.5226 23.3436 85.7684 23.3436C86.9321 23.3436 87.9712 22.3557 87.9712 20.4225V15.5283H90.6639V25.588H87.9712V24.3944L87.9316 24.3745C87.1756 25.2996 86.1167 25.7736 84.9926 25.7736C82.8294 25.7736 81.3203 24.6629 81.3203 21.5961Z" fill="#192B47"></path>
<path d="M91.9023 20.5883C91.9023 17.5444 93.9211 15.3828 96.594 15.3828C97.7577 15.3828 98.8166 15.834 99.5329 16.6992L99.5726 16.6792V15.5284H102.245V25.5881H99.6943V24.3946L99.6547 24.3746C98.961 25.2797 97.9615 25.7737 96.6562 25.7737C93.924 25.7737 91.9023 23.695 91.9023 20.5883ZM99.6943 20.6083C99.6943 18.9835 98.5929 17.7899 97.1659 17.7899C95.7389 17.7899 94.6148 18.8807 94.6148 20.6083C94.6148 22.213 95.6539 23.3438 97.1659 23.3438C98.5335 23.3438 99.6943 22.253 99.6943 20.6083Z" fill="#192B47"></path>
<path d="M104.133 15.5285H106.806V16.9905H106.845C107.601 15.9625 108.68 15.3857 109.844 15.3857H110.048V18.3268C109.762 18.3069 109.495 18.3069 109.334 18.3069C107.681 18.3069 106.806 19.4176 106.806 20.9396V25.5882H104.133V15.5285Z" fill="#192B47"></path>
<path d="M110.569 20.5883C110.569 17.5444 112.611 15.3828 115.281 15.3828C116.504 15.3828 117.566 15.834 118.299 16.6992H118.339V10.4458C119.802 10.4458 120.992 11.6422 120.992 13.1213V25.5882H118.44V24.3546H118.421C117.727 25.2598 116.688 25.7738 115.34 25.7738C112.585 25.7738 110.566 23.695 110.566 20.5883H110.569ZM118.443 20.6083C118.443 18.9835 117.362 17.79 115.833 17.79C114.406 17.79 113.282 18.8808 113.282 20.6083C113.282 22.213 114.343 23.3438 115.833 23.3438C117.322 23.3438 118.443 22.253 118.443 20.6083Z" fill="#192B47"></path>
</svg>